<svg xmlns="http://www.w3.org/2000/svg" xmlns:xlink="http://www.w3.org/1999/xlink" version="1.1" x="0px" y="0px" viewBox="0 0 68 85" enable-background="new 0 0 68 68" xml:space="preserve"><g><path d="M48.4,15.6H45L43.6,4.8C43.3,2.6,41.5,1,39.3,1H28.7c-2.2,0-4,1.6-4.3,3.8L23,15.6h-3.4c-2.2,0-4,1.8-4,4v28.9   c0,2.2,1.8,4,4,4H23l1.4,10.8c0.2,2.2,2.1,3.8,4.3,3.8h10.6c2.2,0,4-1.6,4.3-3.8L45,52.4h3.4c2.2,0,4-1.8,4-4V19.6   C52.4,17.4,50.6,15.6,48.4,15.6z M26.4,5c0.1-1.2,1.1-2,2.3-2h10.6c1.2,0,2.2,0.9,2.3,2.1L43,15.6H25L26.4,5z M41.6,63   c-0.1,1.2-1.1,2-2.3,2H28.7c-1.2,0-2.2-0.9-2.3-2.1L25,52.4h18L41.6,63z M50.4,48.4c0,1.1-0.9,2-2,2c-9,0-19.9,0-28.9,0   c-1.1,0-2-0.9-2-2V19.6c0-1.1,0.9-2,2-2c9,0,19.9,0,28.9,0c1.1,0,2,0.9,2,2V48.4z"/><path d="M39,22c-1.8,0-3.6,0.6-5,1.7c-1.4-1.1-3.2-1.7-5-1.7c-4.4,0-8,3.6-8,8c0,2.1,0.8,4.2,2.4,5.7l10,10   c0.2,0.2,0.5,0.3,0.7,0.3s0.5-0.1,0.7-0.3l10-10C49.7,30.7,46.1,22,39,22z M43.3,34.3L34,43.6l-9.3-9.3C23.6,33.2,23,31.7,23,30   c0-3.3,2.7-6,6-6c1.6,0,3.1,0.6,4.3,1.8c0.4,0.4,1,0.4,1.4,0c1.1-1.1,2.7-1.8,4.3-1.8C44.3,24,47.1,30.5,43.3,34.3z"/><path d="M26.7,29.6c-0.4-0.4-1-0.5-1.4-0.1c-0.4,0.4-0.5,1-0.1,1.4l1.6,1.8c0.4,0.4,1,0.5,1.4,0.1c0.4-0.4,0.5-1,0.1-1.4L26.7,29.6   z"/><path d="M30.4,33.5c-0.4-0.4-1-0.5-1.4-0.1c-0.4,0.4-0.5,1-0.1,1.4l1.6,1.8c0.4,0.4,1,0.5,1.4,0.1c0.4-0.4,0.5-1,0.1-1.4L30.4,33.5   z"/></g><text x="0" y="83" fill="#000000" font-size="5px" font-weight="bold" font-family="'Helvetica Neue', Helvetica, Arial-Unicode, Arial, Sans-serif">Created by Vectors Point</text><text x="0" y="88" fill="#000000" font-size="5px" font-weight="bold" font-family="'Helvetica Neue', Helvetica, Arial-Unicode, Arial, Sans-serif">from the Noun Project</text></svg>